<svg width="12" height="13" viewBox="0 0 12 13" fill="current" xmlns="http://www.w3.org/2000/svg">
    <path
        d="M8 6C8 6.79565 8.31607 7.55871 8.87868 8.12132C9.44129 8.68393 10.2043 9 11 9C10.2043 9 9.44129 9.31607 8.87868 9.87868C8.31607 10.4413 8 11.2044 8 12C8 11.2044 7.68393 10.4413 7.12132 9.87868C6.55871 9.31607 5.79565 9 5 9C5.79565 9 6.55871 8.68393 7.12132 8.12132C7.68393 7.55871 8 6.79565 8 6Z"
        stroke-width="0.727273" stroke-linecap="round"
        stroke-linejoin="round" />
    <path
        d="M3 4C3 4.53043 3.21071 5.03914 3.58579 5.41421C3.96086 5.78929 4.46957 6 5 6C4.46957 6 3.96086 6.21071 3.58579 6.58579C3.21071 6.96086 3 7.46957 3 8C3 7.46957 2.78929 6.96086 2.41421 6.58579C2.03914 6.21071 1.53043 6 1 6C1.53043 6 2.03914 5.78929 2.41421 5.41421C2.78929 5.03914 3 4.53043 3 4Z"
        stroke-width="0.727273" stroke-linecap="round"
        stroke-linejoin="round" />
    <path
        d="M6.33333 1C6.33333 1.35362 6.47381 1.69276 6.72386 1.94281C6.97391 2.19286 7.31304 2.33333 7.66667 2.33333C7.31304 2.33333 6.97391 2.47381 6.72386 2.72386C6.47381 2.97391 6.33333 3.31305 6.33333 3.66667C6.33333 3.31305 6.19286 2.97391 5.94281 2.72386C5.69276 2.47381 5.35362 2.33333 5 2.33333C5.35362 2.33333 5.69276 2.19286 5.94281 1.94281C6.19286 1.69276 6.33333 1.35362 6.33333 1Z"
        stroke-width="0.727273" stroke-linecap="round"
        stroke-linejoin="round" />
</svg>