<svg width="98" height="26" viewBox="0 0 98 26" fill="none" xmlns="http://www.w3.org/2000/svg">
<g clip-path="url(#clip0_1104_10888)">
<g clip-path="url(#clip1_1104_10888)">
<path fill-rule="evenodd" clip-rule="evenodd" d="M23.2092 12.8749L19.5951 10.7882C18.2558 10.015 17.17 9.38811 17.17 9.38811L21.5144 1.86342L18.287 0.000106219L15.4015 4.99796C13.5992 8.11972 14.6688 12.1115 17.7905 13.9138L21.4047 16.0005L23.2092 12.8749Z" fill="#1A65E5"/>
<path fill-rule="evenodd" clip-rule="evenodd" d="M3.54567 10.017C5.4767 10.335 11.71 11.4063 11.71 11.4063L7.8629 18.0697L11.0903 19.933L12.9371 16.7342C15.2178 12.7838 12.8462 7.772 8.34535 7.03068L4.15131 6.33989L3.54567 10.017Z" fill="#1A65E5"/>
</g>
<path d="M90.4105 19.851C89.1717 19.851 88.0567 19.5748 87.0656 19.0223C86.0745 18.454 85.2925 17.6568 84.7195 16.6307C84.162 15.6046 83.8833 14.4207 83.8833 13.0789C83.8833 11.7371 84.1698 10.5532 84.7428 9.52707C85.3312 8.50099 86.1287 7.7117 87.1353 7.1592C88.1419 6.59091 89.2646 6.30676 90.5035 6.30676C91.7423 6.30676 92.865 6.59091 93.8716 7.1592C94.8782 7.7117 95.6679 8.50099 96.2409 9.52707C96.8294 10.5532 97.1236 11.7371 97.1236 13.0789C97.1236 14.4207 96.8216 15.6046 96.2177 16.6307C95.6292 17.6568 94.824 18.454 93.8019 19.0223C92.7953 19.5748 91.6649 19.851 90.4105 19.851ZM90.4105 16.9622C90.999 16.9622 91.5487 16.8201 92.0598 16.536C92.5863 16.2361 93.0044 15.794 93.3141 15.21C93.6238 14.6259 93.7787 13.9155 93.7787 13.0789C93.7787 11.8318 93.4535 10.8768 92.8031 10.2138C92.1682 9.53497 91.3861 9.19557 90.457 9.19557C89.5278 9.19557 88.7458 9.53497 88.1109 10.2138C87.4915 10.8768 87.1818 11.8318 87.1818 13.0789C87.1818 14.326 87.4837 15.2889 88.0877 15.9677C88.7071 16.6307 89.4814 16.9622 90.4105 16.9622Z" fill="#1C1C21"/>
<path d="M63.2896 6.33044C64.8227 6.33044 66.0616 6.8277 67.0062 7.82221C67.9508 8.80093 68.4231 10.1743 68.4231 11.9423L68.4231 19.6379L65.1711 19.6379L65.1711 12.3922C65.1711 11.3503 64.9156 10.5532 64.4046 10.0007C63.8936 9.43236 63.1967 9.14822 62.314 9.14822C61.4159 9.14822 60.7035 9.43236 60.177 10.0007C59.666 10.5532 59.4105 11.3503 59.4105 12.3922L59.4105 19.6379L56.1584 19.6379L56.1584 7.20422L59.4105 6.51987L59.4105 8.15371C59.8441 7.58542 60.3938 7.14342 61.0597 6.8277C61.7411 6.4962 62.4844 6.33044 63.2896 6.33044Z" fill="#1C1C21"/>
<path fill-rule="evenodd" clip-rule="evenodd" d="M79.7387 17.5341C79.2215 18.3098 77.67 19.5572 75.7305 19.683C72.7567 19.8759 69.5243 17.5485 69.5243 12.8939C69.5243 8.75648 72.3688 6.68797 74.5668 6.4292C75.8598 6.27699 78.0578 6.29985 79.7387 8.4978L79.7365 6.8264L82.8164 6.48586L82.8164 20.6748C82.8164 20.6748 82.9053 22.649 81.2182 24.4139C79.4879 26.2241 77.0798 25.9901 77.0798 25.9901L70.4752 25.1863L70.8572 22.1291L79.7387 23.2564L79.7387 17.5341ZM76.247 9.27303C75.0833 9.27304 72.8853 9.95722 72.8853 13.1519C72.8853 16.3466 75.6005 17.0308 76.8935 16.7722C78.445 16.4619 79.738 15.1948 79.738 13.0226C79.738 10.8246 78.1864 9.27303 76.247 9.27303Z" fill="#1C1C21"/>
<path fill-rule="evenodd" clip-rule="evenodd" d="M34.8443 8.09058L40.7121 8.09059L40.712 11.1277L36.7857 11.1277C34.0361 11.1277 31.8072 8.89874 31.8072 6.14923L31.8072 0.887384L34.8443 0.887384L34.8443 8.09058ZM34.8912 17.5319L41.38 15.2027L42.451 18.0447L38.5338 19.521C35.278 20.748 31.7998 18.3421 31.7996 14.8627L31.7994 11.1421L34.8365 11.1419L34.8912 17.5319Z" fill="#1C1C21"/>
<path d="M55.0803 12.7947C55.0803 13.2683 55.0494 13.6945 54.9874 14.0734L45.5798 14.0734C45.6573 15.0205 45.9825 15.7625 46.5554 16.2992C47.1284 16.8359 47.833 17.1043 48.6692 17.1043C49.8771 17.1043 50.7366 16.5754 51.2476 15.5178L54.7551 15.5178C54.3835 16.7807 53.6711 17.8225 52.6181 18.6434C51.5651 19.4485 50.272 19.851 48.7389 19.851C47.5001 19.851 46.3851 19.5748 45.394 19.0223C44.4184 18.454 43.6519 17.6568 43.0944 16.6307C42.5524 15.6046 42.2814 14.4207 42.2814 13.0789C42.2814 11.7213 42.5524 10.5295 43.0944 9.50339C43.6364 8.47732 44.3952 7.68802 45.3708 7.13552C46.3464 6.58301 47.4691 6.30676 48.7389 6.30676C49.9623 6.30676 51.054 6.57512 52.0141 7.11184C52.9898 7.64856 53.7408 8.41417 54.2673 9.40868C54.8093 10.3874 55.0803 11.5161 55.0803 12.7947ZM51.7122 11.8476C51.6967 10.9952 51.3947 10.3164 50.8063 9.81122C50.2178 9.29029 49.4977 9.02982 48.646 9.02982C47.8407 9.02982 47.1594 9.28239 46.6019 9.78754C46.0599 10.2769 45.7269 10.9636 45.6031 11.8476L51.7122 11.8476Z" fill="#1C1C21"/>
</g>
<defs>
<clipPath id="clip0_1104_10888">
<rect width="97.1236" height="26" fill="white"/>
</clipPath>
<clipPath id="clip1_1104_10888">
<rect width="27.5536" height="19.933" fill="white"/>
</clipPath>
</defs>
</svg>
