<svg width="16" height="16" viewBox="0 0 16 16" fill="none" xmlns="http://www.w3.org/2000/svg">
<g opacity="0.5">
<g clip-path="url(#clip0_8356_2659)">
<path d="M10.6667 12.0003C11.0203 12.0003 11.3594 12.1408 11.6095 12.3908C11.8595 12.6409 12 12.98 12 13.3337C12 12.98 12.1405 12.6409 12.3905 12.3908C12.6406 12.1408 12.9797 12.0003 13.3333 12.0003C12.9797 12.0003 12.6406 11.8598 12.3905 11.6098C12.1405 11.3598 12 11.0206 12 10.667C12 11.0206 11.8595 11.3598 11.6095 11.6098C11.3594 11.8598 11.0203 12.0003 10.6667 12.0003ZM10.6667 4.00033C11.0203 4.00033 11.3594 4.1408 11.6095 4.39085C11.8595 4.6409 12 4.98004 12 5.33366C12 4.98004 12.1405 4.6409 12.3905 4.39085C12.6406 4.1408 12.9797 4.00033 13.3333 4.00033C12.9797 4.00033 12.6406 3.85985 12.3905 3.6098C12.1405 3.35975 12 3.02061 12 2.66699C12 3.02061 11.8595 3.35975 11.6095 3.6098C11.3594 3.85985 11.0203 4.00033 10.6667 4.00033ZM6 12.0003C6 10.9395 6.42143 9.92204 7.17157 9.1719C7.92172 8.42175 8.93913 8.00033 10 8.00033C8.93913 8.00033 7.92172 7.5789 7.17157 6.82875C6.42143 6.07861 6 5.06119 6 4.00033C6 5.06119 5.57857 6.07861 4.82843 6.82875C4.07828 7.5789 3.06087 8.00033 2 8.00033C3.06087 8.00033 4.07828 8.42175 4.82843 9.1719C5.57857 9.92204 6 10.9395 6 12.0003Z" fill="url(#paint0_linear_8356_2659)" stroke="url(#paint1_linear_8356_2659)" stroke-width="1.33333" stroke-linecap="round" stroke-linejoin="round"/>
</g>
</g>
<defs>
<linearGradient id="paint0_linear_8356_2659" x1="12.6533" y1="5.06699" x2="1.48299" y2="6.22859" gradientUnits="userSpaceOnUse">
<stop stop-color="#CC5DE8"/>
<stop offset="0.445" stop-color="#6B61E6"/>
<stop offset="1" stop-color="#1A65E5"/>
</linearGradient>
<linearGradient id="paint1_linear_8356_2659" x1="12.6533" y1="5.06699" x2="1.48299" y2="6.22859" gradientUnits="userSpaceOnUse">
<stop stop-color="#CC5DE8"/>
<stop offset="0.445" stop-color="#6B61E6"/>
<stop offset="1" stop-color="#1A65E5"/>
</linearGradient>
<clipPath id="clip0_8356_2659">
<rect width="16" height="16" fill="white"/>
</clipPath>
</defs>
</svg>
