<svg width="12" height="12" viewBox="0 0 12 12" fill="none" xmlns="http://www.w3.org/2000/svg">
<g id="crown">
<path id="Vector" d="M6.48536 2.67642C6.37717 2.51414 6.19504 2.41667 6 2.41667C5.80496 2.41667 5.62283 2.51414 5.51464 2.67642L3.86757 5.14703L1.86441 3.54449C1.67296 3.39133 1.40617 3.37423 1.19673 3.5017C0.987292 3.62916 0.879912 3.87399 0.927995 4.1144L1.92799 9.1144C1.98253 9.38707 2.22194 9.58333 2.5 9.58333H9.5C9.77806 9.58333 10.0175 9.38707 10.072 9.1144L11.072 4.1144C11.1201 3.87399 11.0127 3.62916 10.8033 3.5017C10.5938 3.37423 10.327 3.39133 10.1356 3.54449L8.13243 5.14703L6.48536 2.67642Z" fill="#FCC419" stroke="white" stroke-width="1.16667" stroke-linecap="round" stroke-linejoin="round"/>
</g>
</svg>
