<svg width="46" height="48" viewBox="0 0 46 48" fill="none" xmlns="http://www.w3.org/2000/svg">
<g filter="url(#filter0_dd_9826_265252)">
<path d="M38.5397 16.4615L26.0781 4L27.4443 16.2083C27.5928 17.5351 28.7147 18.5385 30.0498 18.5385H39.232L38.5397 16.4615Z" fill="#E5DBFF"/>
<g filter="url(#filter1_i_9826_265252)">
<path d="M30.9938 15.0769C29.4252 15.0769 28.1535 13.8053 28.1535 12.2367V7.40828C28.1535 5.52594 26.6276 4 24.7453 4H20.3997H9.9997C7.79056 4 5.9997 5.79086 5.9997 8V33.2308C5.9997 35.4399 7.79056 37.2308 9.9997 37.2308H35.2305C37.4396 37.2308 39.2305 35.4399 39.2305 33.2308V18.4852C39.2305 16.6029 37.7045 15.0769 35.8222 15.0769H30.9938Z" fill="#BDADEE"/>
<path d="M30.9938 15.0769C29.4252 15.0769 28.1535 13.8053 28.1535 12.2367V7.40828C28.1535 5.52594 26.6276 4 24.7453 4H20.3997H9.9997C7.79056 4 5.9997 5.79086 5.9997 8V33.2308C5.9997 35.4399 7.79056 37.2308 9.9997 37.2308H35.2305C37.4396 37.2308 39.2305 35.4399 39.2305 33.2308V18.4852C39.2305 16.6029 37.7045 15.0769 35.8222 15.0769H30.9938Z" fill="url(#paint0_linear_9826_265252)" fill-opacity="0.4" style="mix-blend-mode:overlay"/>
</g>
<path d="M30.9938 15.3503C29.2742 15.3503 27.8802 13.9563 27.8802 12.2367V7.40828C27.8802 5.67692 26.4766 4.27337 24.7453 4.27337H20.3997H9.9997C7.94154 4.27337 6.27307 5.94184 6.27307 8V33.2308C6.27307 35.2889 7.94154 36.9574 9.9997 36.9574H35.2305C37.2886 36.9574 38.9571 35.2889 38.9571 33.2308V18.4852C38.9571 16.7538 37.5535 15.3503 35.8222 15.3503H30.9938Z" stroke="#B197FC" stroke-width="0.546746" stroke-linejoin="round"/>
<g clip-path="url(#clip0_9826_265252)">
<g filter="url(#filter2_di_9826_265252)">
<path d="M25.4609 19.4167C25.4609 20.6594 22.7746 21.6667 19.4609 21.6667C16.1472 21.6667 13.4609 20.6594 13.4609 19.4167M25.4609 19.4167C25.4609 18.1741 22.7746 17.1667 19.4609 17.1667C16.1472 17.1667 13.4609 18.1741 13.4609 19.4167M25.4609 19.4167V23.9167M13.4609 19.4167V23.9167M13.4609 23.9167C13.4609 24.5135 14.0931 25.0858 15.2183 25.5077C16.3435 25.9297 17.8696 26.1667 19.4609 26.1667C21.0522 26.1667 22.5784 25.9297 23.7036 25.5077C24.8288 25.0858 25.4609 24.5135 25.4609 23.9167M13.4609 23.9167V28.4167C13.4609 29.0135 14.0931 29.5858 15.2183 30.0077C16.3435 30.4297 17.8696 30.6667 19.4609 30.6667C21.0522 30.6667 22.5784 30.4297 23.7036 30.0077C24.8288 29.5858 25.4609 29.0135 25.4609 28.4167V23.9167" stroke="white" stroke-width="1.92857" stroke-linecap="round" stroke-linejoin="round" shape-rendering="crispEdges"/>
</g>
</g>
<path d="M8.76863 37.2308L36.4609 37.2308L10.9173 39.7228C9.5323 39.858 8.43113 38.5808 8.76863 37.2308Z" fill="#E5DBFF"/>
</g>
<defs>
<filter id="filter0_dd_9826_265252" x="0" y="0" width="45.2305" height="48" filterUnits="userSpaceOnUse" color-interpolation-filters="sRGB">
<feFlood flood-opacity="0" result="BackgroundImageFix"/>
<feColorMatrix in="SourceAlpha" type="matrix" values="0 0 0 0 0 0 0 0 0 0 0 0 0 0 0 0 0 0 127 0" result="hardAlpha"/>
<feMorphology radius="2" operator="erode" in="SourceAlpha" result="effect1_dropShadow_9826_265252"/>
<feOffset dy="1"/>
<feGaussianBlur stdDeviation="1"/>
<feColorMatrix type="matrix" values="0 0 0 0 0 0 0 0 0 0 0 0 0 0 0 0 0 0 0.01 0"/>
<feBlend mode="normal" in2="BackgroundImageFix" result="effect1_dropShadow_9826_265252"/>
<feColorMatrix in="SourceAlpha" type="matrix" values="0 0 0 0 0 0 0 0 0 0 0 0 0 0 0 0 0 0 127 0" result="hardAlpha"/>
<feMorphology radius="2" operator="erode" in="SourceAlpha" result="effect2_dropShadow_9826_265252"/>
<feOffset dy="2"/>
<feGaussianBlur stdDeviation="4"/>
<feComposite in2="hardAlpha" operator="out"/>
<feColorMatrix type="matrix" values="0 0 0 0 0 0 0 0 0 0 0 0 0 0 0 0 0 0 0.06 0"/>
<feBlend mode="normal" in2="effect1_dropShadow_9826_265252" result="effect2_dropShadow_9826_265252"/>
<feBlend mode="normal" in="SourceGraphic" in2="effect2_dropShadow_9826_265252" result="shape"/>
</filter>
<filter id="filter1_i_9826_265252" x="6" y="3.45325" width="33.2305" height="33.7775" filterUnits="userSpaceOnUse" color-interpolation-filters="sRGB">
<feFlood flood-opacity="0" result="BackgroundImageFix"/>
<feBlend mode="normal" in="SourceGraphic" in2="BackgroundImageFix" result="shape"/>
<feColorMatrix in="SourceAlpha" type="matrix" values="0 0 0 0 0 0 0 0 0 0 0 0 0 0 0 0 0 0 127 0" result="hardAlpha"/>
<feOffset dy="-0.546746"/>
<feGaussianBlur stdDeviation="2.46036"/>
<feComposite in2="hardAlpha" operator="arithmetic" k2="-1" k3="1"/>
<feColorMatrix type="matrix" values="0 0 0 0 0.512963 0 0 0 0 0.383138 0 0 0 0 0.910075 0 0 0 1 0"/>
<feBlend mode="normal" in2="shape" result="effect1_innerShadow_9826_265252"/>
</filter>
<filter id="filter2_di_9826_265252" x="11.687" y="15.7978" width="15.548" height="17.0469" filterUnits="userSpaceOnUse" color-interpolation-filters="sRGB">
<feFlood flood-opacity="0" result="BackgroundImageFix"/>
<feColorMatrix in="SourceAlpha" type="matrix" values="0 0 0 0 0 0 0 0 0 0 0 0 0 0 0 0 0 0 127 0" result="hardAlpha"/>
<feOffset dy="0.404567"/>
<feGaussianBlur stdDeviation="0.404567"/>
<feComposite in2="hardAlpha" operator="out"/>
<feColorMatrix type="matrix" values="0 0 0 0 0 0 0 0 0 0 0 0 0 0 0 0 0 0 0.3 0"/>
<feBlend mode="hard-light" in2="BackgroundImageFix" result="effect1_dropShadow_9826_265252"/>
<feBlend mode="normal" in="SourceGraphic" in2="effect1_dropShadow_9826_265252" result="shape"/>
<feColorMatrix in="SourceAlpha" type="matrix" values="0 0 0 0 0 0 0 0 0 0 0 0 0 0 0 0 0 0 127 0" result="hardAlpha"/>
<feOffset dy="-0.404567"/>
<feGaussianBlur stdDeviation="0.202284"/>
<feComposite in2="hardAlpha" operator="arithmetic" k2="-1" k3="1"/>
<feColorMatrix type="matrix" values="0 0 0 0 0.722842 0 0 0 0 0.810034 0 0 0 0 0.94082 0 0 0 0.8 0"/>
<feBlend mode="normal" in2="shape" result="effect2_innerShadow_9826_265252"/>
</filter>
<linearGradient id="paint0_linear_9826_265252" x1="22.6151" y1="20.6154" x2="33.479" y2="11.0296" gradientUnits="userSpaceOnUse">
<stop stop-opacity="0"/>
<stop offset="1"/>
</linearGradient>
<clipPath id="clip0_9826_265252">
<rect width="18" height="18" fill="white" transform="translate(10.4609 14.9167)"/>
</clipPath>
</defs>
</svg>
