<svg width="46" height="48" viewBox="0 0 46 48" fill="none" xmlns="http://www.w3.org/2000/svg">
<g filter="url(#filter0_dd_9826_265257)">
<path d="M38.5397 16.4615L26.0781 4L27.4443 16.2083C27.5928 17.5351 28.7147 18.5385 30.0498 18.5385H39.232L38.5397 16.4615Z" fill="#DCDEF3"/>
<g filter="url(#filter1_i_9826_265257)">
<path d="M30.9938 15.0769C29.4252 15.0769 28.1535 13.8053 28.1535 12.2367V7.40828C28.1535 5.52594 26.6276 4 24.7453 4H20.3997H9.9997C7.79056 4 5.9997 5.79086 5.9997 8V33.2308C5.9997 35.4399 7.79056 37.2308 9.9997 37.2308H35.8222C37.7045 37.2308 39.2305 35.7048 39.2305 33.8225V18.4852C39.2305 16.6029 37.7045 15.0769 35.8222 15.0769H30.9938Z" fill="#C2C3D7"/>
<path d="M30.9938 15.0769C29.4252 15.0769 28.1535 13.8053 28.1535 12.2367V7.40828C28.1535 5.52594 26.6276 4 24.7453 4H20.3997H9.9997C7.79056 4 5.9997 5.79086 5.9997 8V33.2308C5.9997 35.4399 7.79056 37.2308 9.9997 37.2308H35.8222C37.7045 37.2308 39.2305 35.7048 39.2305 33.8225V18.4852C39.2305 16.6029 37.7045 15.0769 35.8222 15.0769H30.9938Z" fill="url(#paint0_linear_9826_265257)" fill-opacity="0.4" style="mix-blend-mode:overlay"/>
</g>
<path d="M30.9938 15.3503C29.2742 15.3503 27.8802 13.9563 27.8802 12.2367V7.40828C27.8802 5.67692 26.4766 4.27337 24.7453 4.27337H20.3997H9.9997C7.94154 4.27337 6.27307 5.94184 6.27307 8V33.2308C6.27307 35.2889 7.94154 36.9574 9.9997 36.9574H35.8222C37.5535 36.9574 38.9571 35.5538 38.9571 33.8225V18.4852C38.9571 16.7538 37.5535 15.3503 35.8222 15.3503H30.9938Z" stroke="#B6B7C3" stroke-width="0.546746" stroke-linejoin="round"/>
<g filter="url(#filter2_di_9826_265257)">
<path d="M11.75 18.6982H16.5429M19.7382 18.6982H24.5311M13.3476 21.8935H14.9453C15.8276 21.8935 16.5429 22.6088 16.5429 23.4911V29.8817C16.5429 30.764 15.8276 31.4793 14.9453 31.4793H13.3476C12.4653 31.4793 11.75 30.764 11.75 29.8817V23.4911C11.75 22.6088 12.4653 21.8935 13.3476 21.8935ZM21.3358 21.8935H22.9334C23.8158 21.8935 24.5311 22.6088 24.5311 23.4911V25.0888C24.5311 25.9711 23.8158 26.6864 22.9334 26.6864H21.3358C20.4535 26.6864 19.7382 25.9711 19.7382 25.0888V23.4911C19.7382 22.6088 20.4535 21.8935 21.3358 21.8935Z" stroke="white" stroke-width="2.13018" stroke-linecap="round" stroke-linejoin="round" shape-rendering="crispEdges"/>
</g>
<path d="M8.76863 37.2308L36.4609 37.2308L10.9173 39.7228C9.5323 39.858 8.43113 38.5808 8.76863 37.2308Z" fill="#DCDEF3"/>
</g>
<defs>
<filter id="filter0_dd_9826_265257" x="0" y="0" width="45.2305" height="48" filterUnits="userSpaceOnUse" color-interpolation-filters="sRGB">
<feFlood flood-opacity="0" result="BackgroundImageFix"/>
<feColorMatrix in="SourceAlpha" type="matrix" values="0 0 0 0 0 0 0 0 0 0 0 0 0 0 0 0 0 0 127 0" result="hardAlpha"/>
<feMorphology radius="2" operator="erode" in="SourceAlpha" result="effect1_dropShadow_9826_265257"/>
<feOffset dy="1"/>
<feGaussianBlur stdDeviation="1"/>
<feColorMatrix type="matrix" values="0 0 0 0 0 0 0 0 0 0 0 0 0 0 0 0 0 0 0.01 0"/>
<feBlend mode="normal" in2="BackgroundImageFix" result="effect1_dropShadow_9826_265257"/>
<feColorMatrix in="SourceAlpha" type="matrix" values="0 0 0 0 0 0 0 0 0 0 0 0 0 0 0 0 0 0 127 0" result="hardAlpha"/>
<feMorphology radius="2" operator="erode" in="SourceAlpha" result="effect2_dropShadow_9826_265257"/>
<feOffset dy="2"/>
<feGaussianBlur stdDeviation="4"/>
<feComposite in2="hardAlpha" operator="out"/>
<feColorMatrix type="matrix" values="0 0 0 0 0 0 0 0 0 0 0 0 0 0 0 0 0 0 0.06 0"/>
<feBlend mode="normal" in2="effect1_dropShadow_9826_265257" result="effect2_dropShadow_9826_265257"/>
<feBlend mode="normal" in="SourceGraphic" in2="effect2_dropShadow_9826_265257" result="shape"/>
</filter>
<filter id="filter1_i_9826_265257" x="6" y="3.45325" width="33.2305" height="33.7775" filterUnits="userSpaceOnUse" color-interpolation-filters="sRGB">
<feFlood flood-opacity="0" result="BackgroundImageFix"/>
<feBlend mode="normal" in="SourceGraphic" in2="BackgroundImageFix" result="shape"/>
<feColorMatrix in="SourceAlpha" type="matrix" values="0 0 0 0 0 0 0 0 0 0 0 0 0 0 0 0 0 0 127 0" result="hardAlpha"/>
<feOffset dy="-0.546746"/>
<feGaussianBlur stdDeviation="2.46036"/>
<feComposite in2="hardAlpha" operator="arithmetic" k2="-1" k3="1"/>
<feColorMatrix type="matrix" values="0 0 0 0 0.515963 0 0 0 0 0.525863 0 0 0 0 0.723877 0 0 0 1 0"/>
<feBlend mode="normal" in2="shape" result="effect1_innerShadow_9826_265257"/>
</filter>
<filter id="filter2_di_9826_265257" x="10.125" y="17.3539" width="16.0312" height="16.0284" filterUnits="userSpaceOnUse" color-interpolation-filters="sRGB">
<feFlood flood-opacity="0" result="BackgroundImageFix"/>
<feColorMatrix in="SourceAlpha" type="matrix" values="0 0 0 0 0 0 0 0 0 0 0 0 0 0 0 0 0 0 127 0" result="hardAlpha"/>
<feOffset dy="0.279287"/>
<feGaussianBlur stdDeviation="0.279287"/>
<feComposite in2="hardAlpha" operator="out"/>
<feColorMatrix type="matrix" values="0 0 0 0 0 0 0 0 0 0 0 0 0 0 0 0 0 0 0.3 0"/>
<feBlend mode="hard-light" in2="BackgroundImageFix" result="effect1_dropShadow_9826_265257"/>
<feBlend mode="normal" in="SourceGraphic" in2="effect1_dropShadow_9826_265257" result="shape"/>
<feColorMatrix in="SourceAlpha" type="matrix" values="0 0 0 0 0 0 0 0 0 0 0 0 0 0 0 0 0 0 127 0" result="hardAlpha"/>
<feOffset dy="-0.279287"/>
<feGaussianBlur stdDeviation="0.139644"/>
<feComposite in2="hardAlpha" operator="arithmetic" k2="-1" k3="1"/>
<feColorMatrix type="matrix" values="0 0 0 0 0.722842 0 0 0 0 0.810034 0 0 0 0 0.94082 0 0 0 0.8 0"/>
<feBlend mode="normal" in2="shape" result="effect2_innerShadow_9826_265257"/>
</filter>
<linearGradient id="paint0_linear_9826_265257" x1="22.6151" y1="20.6154" x2="33.479" y2="11.0296" gradientUnits="userSpaceOnUse">
<stop stop-opacity="0"/>
<stop offset="1"/>
</linearGradient>
</defs>
</svg>
