<svg width="46" height="48" viewBox="0 0 46 48" fill="none" xmlns="http://www.w3.org/2000/svg">
<g filter="url(#filter0_dd_9826_265241)">
<path d="M38.5397 16.4615L26.0781 4L27.4443 16.2083C27.5928 17.5351 28.7147 18.5385 30.0498 18.5385H39.232L38.5397 16.4615Z" fill="#FDD4CE"/>
<g filter="url(#filter1_i_9826_265241)">
<path d="M30.9938 15.0769C29.4252 15.0769 28.1535 13.8053 28.1535 12.2367V7.40828C28.1535 5.52594 26.6276 4 24.7453 4H20.3997H9.9997C7.79056 4 5.9997 5.79086 5.9997 8V33.2308C5.9997 35.4399 7.79056 37.2308 9.9997 37.2308H35.2305C37.4396 37.2308 39.2305 35.4399 39.2305 33.2308V18.4852C39.2305 16.6029 37.7045 15.0769 35.8222 15.0769H30.9938Z" fill="#F48778"/>
<path d="M30.9938 15.0769C29.4252 15.0769 28.1535 13.8053 28.1535 12.2367V7.40828C28.1535 5.52594 26.6276 4 24.7453 4H20.3997H9.9997C7.79056 4 5.9997 5.79086 5.9997 8V33.2308C5.9997 35.4399 7.79056 37.2308 9.9997 37.2308H35.2305C37.4396 37.2308 39.2305 35.4399 39.2305 33.2308V18.4852C39.2305 16.6029 37.7045 15.0769 35.8222 15.0769H30.9938Z" fill="url(#paint0_linear_9826_265241)" fill-opacity="0.4" style="mix-blend-mode:overlay"/>
</g>
<path d="M30.9938 15.432C29.2291 15.432 27.7985 14.0014 27.7985 12.2367V7.40828C27.7985 5.72202 26.4315 4.35503 24.7453 4.35503H20.3997H9.9997C7.98664 4.35503 6.35473 5.98694 6.35473 8V33.2308C6.35473 35.2438 7.98664 36.8757 9.9997 36.8757H35.2305C37.2435 36.8757 38.8754 35.2438 38.8754 33.2308V18.4852C38.8754 16.7989 37.5085 15.432 35.8222 15.432H30.9938Z" stroke="#EA7D6F" stroke-width="0.710059" stroke-linejoin="round"/>
<g filter="url(#filter2_di_9826_265241)">
<path d="M32.1577 25.5791C31.6206 24.6219 29.7648 24.3211 28.9134 24.1858C28.2423 24.079 27.5571 24.0472 26.8784 24.0478C26.3454 24.0442 25.8203 24.0705 25.3019 24.0999C25.1108 24.1128 24.9217 24.1293 24.7327 24.1457C24.5389 23.9451 24.3517 23.738 24.1705 23.5261C23.0176 22.1614 22.0867 20.6136 21.3282 19.0053C21.5296 18.2282 21.6907 17.4172 21.788 16.5749C21.9657 15.0376 22.0267 13.2857 21.4507 11.8201C21.2518 11.3143 20.7215 10.6985 20.1097 11.0051C19.4063 11.3578 19.2084 12.3569 19.1511 13.0652C19.1049 13.6376 19.1372 14.2116 19.2333 14.7745C19.3312 15.3412 19.4888 15.8793 19.6604 16.4167C19.8205 16.9094 19.997 17.3983 20.1894 17.8826C20.0673 18.2639 19.9377 18.6385 19.8017 19.0035C19.4844 19.8355 19.1413 20.6259 18.8114 21.3862C18.6374 21.7632 18.4671 22.1322 18.3005 22.4929C17.7733 23.651 17.201 24.7879 16.5586 25.8868C15.0603 26.4154 13.7157 27.0281 12.5991 27.7481C12.0001 28.1351 11.4709 28.5555 11.0303 29.0165C10.6142 29.4517 10.1914 30.0165 10.1544 30.6418C10.1336 30.9947 10.2733 31.3372 10.5625 31.5466C10.9601 31.8436 11.487 31.8239 11.9483 31.7272C13.4595 31.4102 14.6199 30.1112 15.6081 29.0163C16.2888 28.2622 17.0636 27.3047 17.874 26.1466C17.8758 26.1439 17.8775 26.1413 17.8795 26.1386C19.2694 25.7077 20.7822 25.3438 22.3878 25.0764C23.1212 24.9548 23.8742 24.8552 24.6421 24.7854C25.1822 25.2912 25.7657 25.7518 26.4023 26.1364C26.8981 26.4415 27.4255 26.699 27.9775 26.8911C28.5356 27.0735 29.0972 27.2224 29.6771 27.3166C29.9699 27.3585 30.2693 27.3775 30.5752 27.366C31.258 27.3402 32.2379 27.0784 32.3022 26.2499C32.322 25.9964 32.2673 25.774 32.1577 25.5791ZM15.8122 27.0991C15.4924 27.5945 15.184 28.04 14.8934 28.4321C14.1817 29.4004 13.369 30.5505 12.1922 30.9806C11.9687 31.0622 11.6744 31.1466 11.3642 31.1283C11.0879 31.1121 10.8154 30.9901 10.828 30.6764C10.8342 30.5122 10.9145 30.3027 11.0378 30.0969C11.1727 29.8711 11.3397 29.6642 11.5206 29.4738C11.9082 29.0666 12.3983 28.6719 12.962 28.3065C13.8267 27.7455 14.859 27.2405 16.0097 26.79C15.9435 26.8947 15.8775 26.9987 15.8122 27.0991ZM19.8256 14.6766C19.7368 14.1585 19.7234 13.6332 19.7779 13.1281C19.8051 12.8756 19.8565 12.6291 19.931 12.398C19.9941 12.202 20.1303 11.7234 20.3476 11.6619C20.7059 11.5605 20.816 12.3296 20.8565 12.5472C21.0874 13.7851 20.884 15.1616 20.6069 16.3759C20.5629 16.569 20.5138 16.7591 20.4635 16.9484C20.3777 16.7123 20.2959 16.4755 20.2205 16.2376C20.0583 15.7179 19.91 15.1922 19.8256 14.6766ZM22.2851 24.4483C20.9391 24.6665 19.6587 24.9524 18.455 25.2899C18.6 25.2493 19.2622 23.9942 19.4099 23.7337C20.106 22.5078 20.6753 21.2212 21.0845 19.8715C21.8069 21.3002 22.6837 22.6671 23.7608 23.8837C23.86 23.9941 23.9609 24.1032 24.0635 24.211C23.4599 24.276 22.8659 24.3552 22.2851 24.4483ZM31.3881 26.1724C31.3389 26.4385 30.7705 26.5907 30.5053 26.6325C29.7216 26.7558 28.8924 26.6571 28.1423 26.4052C27.6276 26.2324 27.1312 25.9971 26.6596 25.714C26.1907 25.4308 25.7521 25.0976 25.3421 24.7302C25.8477 24.6998 26.3594 24.6799 26.8736 24.6897C27.3879 24.6948 27.9061 24.7208 28.418 24.7876C29.3779 24.8946 30.4536 25.2241 31.2092 25.847C31.3579 25.9698 31.4054 26.0783 31.3881 26.1724Z" fill="white"/>
<path d="M25.2898 23.8873L25.2898 23.8873C25.8083 23.8578 26.339 23.8312 26.879 23.8347M25.2898 23.8873L32.3022 26.2499C32.322 25.9964 32.2673 25.774 32.1577 25.5791L32.3435 25.4749C32.3435 25.4749 32.3435 25.4748 32.3434 25.4748C32.0328 24.9213 31.3648 24.586 30.7206 24.3721C30.0644 24.1541 29.3715 24.0429 28.9468 23.9754C28.2608 23.8663 27.5637 23.8342 26.879 23.8347M25.2898 23.8873L25.2876 23.8874C25.1288 23.8981 24.9714 23.9112 24.8159 23.9246C24.6503 23.7505 24.4894 23.5713 24.3328 23.3882C23.2111 22.0603 22.3 20.5542 21.5537 18.9838C21.7482 18.2213 21.9042 17.4257 21.9996 16.5994C22.1778 15.0572 22.2454 13.2599 21.6489 11.7422L21.6489 11.7422C21.5391 11.4629 21.3365 11.1468 21.0644 10.9387C20.7844 10.7246 20.4118 10.6154 20.0142 10.8147L20.0142 10.8147C19.5952 11.0247 19.3429 11.419 19.1888 11.8265C19.0342 12.2356 18.9681 12.6849 18.9387 13.048L18.9387 13.0481C18.891 13.6398 18.9245 14.2316 19.0233 14.8103L19.0234 14.8107C19.1239 15.3923 19.2851 15.9417 19.4575 16.4815L19.4578 16.4826C19.6115 16.9555 19.7801 17.4248 19.9633 17.89C19.8491 18.243 19.7285 18.5899 19.6023 18.9284C19.2874 19.7541 18.9468 20.5392 18.6169 21.2991L18.1071 22.4036L18.1067 22.4047C17.5925 23.5341 17.036 24.6416 16.4139 25.7121C14.935 26.2383 13.6 26.8493 12.4836 27.5691L12.4835 27.5692C11.8738 27.9631 11.3309 28.3937 10.8763 28.8693C10.4556 29.3093 9.98355 29.9224 9.94172 30.6292L9.94172 30.6292C9.91724 31.0448 10.0818 31.4608 10.4362 31.7182C10.911 32.072 11.5179 32.035 11.992 31.9356L11.992 31.9356C12.7942 31.7674 13.4933 31.3407 14.1106 30.8272C14.7133 30.3258 15.2501 29.731 15.7336 29.1952L15.7663 29.1591C16.4428 28.4095 17.2101 27.4624 18.0122 26.3206C19.3737 25.9019 20.8533 25.5479 22.4226 25.2865C23.1212 25.1707 23.8373 25.0751 24.5669 25.0063C25.0958 25.4945 25.6678 25.9414 26.2914 26.3183L25.2898 23.8873ZM26.879 23.8347C26.8792 23.8347 26.8795 23.8347 26.8798 23.8347L26.8784 24.0478L26.8782 23.8347C26.8784 23.8347 26.8787 23.8347 26.879 23.8347ZM20.0355 14.6406L20.0358 14.6421C20.1178 15.1426 20.2624 15.6568 20.4238 16.1739C20.4238 16.174 20.4238 16.174 20.4239 16.1741L20.0355 14.6406ZM20.0355 14.6406C19.9502 14.1424 19.9372 13.637 19.9897 13.151L19.9897 13.1509M20.0355 14.6406L19.9897 13.1509M19.9897 13.1509C20.0154 12.9119 20.064 12.6798 20.1337 12.4634L20.1337 12.4633M19.9897 13.1509L20.1337 12.4633M20.1337 12.4633C20.1386 12.4481 20.1438 12.4318 20.1492 12.4147M20.1337 12.4633L20.1492 12.4147M20.6471 12.5863L20.6471 12.5863C20.6441 12.5699 20.6408 12.5517 20.6373 12.5318C20.6149 12.4066 20.5814 12.219 20.5217 12.0596C20.4867 11.9659 20.4511 11.9066 20.4221 11.8776C20.4048 11.8603 20.4055 11.8656 20.4056 11.8667L20.6471 12.5863ZM20.6471 12.5863C20.8614 13.735 20.6888 15.0208 20.4298 16.1927L20.6471 12.5863ZM22.2511 24.2381L22.2514 24.238C22.7007 24.1659 23.1579 24.1022 23.621 24.0468C23.6148 24.0399 23.6086 24.033 23.6023 24.026L23.6013 24.0249C22.6256 22.9228 21.8136 21.7009 21.1317 20.4242C20.7336 21.6121 20.2135 22.7498 19.5952 23.8388L22.2511 24.2381ZM22.2511 24.2381C21.1134 24.4225 20.022 24.655 18.9838 24.9261M22.2511 24.2381L18.9838 24.9261M18.9838 24.9261C18.8834 24.9523 18.7835 24.9789 18.6841 25.0058L18.822 25.1842C18.8721 25.1088 18.9271 25.0205 18.9838 24.9261ZM18.9838 24.9261C19.0273 24.8535 19.0719 24.7773 19.1161 24.7005M18.9838 24.9261L19.1161 24.7005M31.2092 25.847L31.0735 26.0113C31.1342 26.0614 31.1611 26.0981 31.1721 26.119C31.1762 26.127 31.1778 26.132 31.1783 26.1345C31.1764 26.139 31.1675 26.1568 31.1323 26.1854C31.0896 26.2202 31.0257 26.2562 30.9449 26.2903C30.7838 26.3583 30.5931 26.403 30.4721 26.4221C29.7272 26.5392 28.9328 26.446 28.2101 26.2033L28.2101 26.2032C27.7117 26.0359 27.2294 25.8075 26.7697 25.5317C26.4641 25.3471 26.1711 25.1402 25.8902 24.9156C26.216 24.9024 26.5426 24.8965 26.8696 24.9027L26.8715 24.9027C27.3803 24.9078 27.8895 24.9334 28.3904 24.9988L28.3904 24.9988L28.3944 24.9993C29.331 25.1037 30.3615 25.4242 31.0737 26.0114L31.2092 25.847ZM31.2092 25.847C31.3579 25.9698 31.4054 26.0783 31.3881 26.1724L31.2092 25.847ZM20.1492 12.4147C20.181 12.3142 20.2218 12.1853 20.2753 12.0677M20.1492 12.4147L20.2753 12.0677M20.2753 12.0677C20.3064 11.9994 20.3377 11.9446 20.3674 11.9067M20.2753 12.0677L20.3674 11.9067M20.3674 11.9067C20.3934 11.8734 20.4079 11.8664 20.4078 11.8662M20.3674 11.9067L20.4078 11.8662M20.4078 11.8662C20.4078 11.8662 20.4071 11.8665 20.4056 11.8669L20.4078 11.8662ZM19.1161 24.7005C19.2497 24.4682 19.391 24.2104 19.489 24.0315M19.1161 24.7005L19.489 24.0315M19.489 24.0315C19.5364 23.9448 19.5738 23.8767 19.5952 23.8389L19.489 24.0315ZM13.078 28.4852C13.7695 28.0365 14.5731 27.6225 15.4638 27.243C15.2068 27.632 14.9584 27.9867 14.7223 28.3052L14.7217 28.3059C14.6974 28.3391 14.6729 28.3724 14.6484 28.4058C14.3123 28.8638 13.9617 29.3416 13.5628 29.7614C13.1358 30.2109 12.665 30.581 12.119 30.7805C11.9049 30.8588 11.6433 30.9314 11.3767 30.9156L11.3767 30.9156C11.2604 30.9088 11.1675 30.8802 11.111 30.8402C11.0662 30.8084 11.0376 30.7667 11.0408 30.6849L11.0408 30.6844C11.0451 30.5723 11.1049 30.3994 11.2205 30.2063L11.2206 30.2061C11.3454 29.9974 11.5018 29.8029 11.6749 29.6207C12.0486 29.228 12.525 28.8437 13.0779 28.4852L13.078 28.4852Z" stroke="white" stroke-width="0.426036" stroke-linejoin="round"/>
</g>
<path d="M8.76863 37.2308L36.4609 37.2308L10.9173 39.7228C9.53229 39.858 8.43112 38.5808 8.76863 37.2308Z" fill="#FDD4CE"/>
</g>
<defs>
<filter id="filter0_dd_9826_265241" x="0" y="0" width="45.2305" height="48" filterUnits="userSpaceOnUse" color-interpolation-filters="sRGB">
<feFlood flood-opacity="0" result="BackgroundImageFix"/>
<feColorMatrix in="SourceAlpha" type="matrix" values="0 0 0 0 0 0 0 0 0 0 0 0 0 0 0 0 0 0 127 0" result="hardAlpha"/>
<feMorphology radius="2" operator="erode" in="SourceAlpha" result="effect1_dropShadow_9826_265241"/>
<feOffset dy="1"/>
<feGaussianBlur stdDeviation="1"/>
<feColorMatrix type="matrix" values="0 0 0 0 0 0 0 0 0 0 0 0 0 0 0 0 0 0 0.01 0"/>
<feBlend mode="normal" in2="BackgroundImageFix" result="effect1_dropShadow_9826_265241"/>
<feColorMatrix in="SourceAlpha" type="matrix" values="0 0 0 0 0 0 0 0 0 0 0 0 0 0 0 0 0 0 127 0" result="hardAlpha"/>
<feMorphology radius="2" operator="erode" in="SourceAlpha" result="effect2_dropShadow_9826_265241"/>
<feOffset dy="2"/>
<feGaussianBlur stdDeviation="4"/>
<feComposite in2="hardAlpha" operator="out"/>
<feColorMatrix type="matrix" values="0 0 0 0 0 0 0 0 0 0 0 0 0 0 0 0 0 0 0.06 0"/>
<feBlend mode="normal" in2="effect1_dropShadow_9826_265241" result="effect2_dropShadow_9826_265241"/>
<feBlend mode="normal" in="SourceGraphic" in2="effect2_dropShadow_9826_265241" result="shape"/>
</filter>
<filter id="filter1_i_9826_265241" x="6" y="3.28994" width="33.2305" height="33.9408" filterUnits="userSpaceOnUse" color-interpolation-filters="sRGB">
<feFlood flood-opacity="0" result="BackgroundImageFix"/>
<feBlend mode="normal" in="SourceGraphic" in2="BackgroundImageFix" result="shape"/>
<feColorMatrix in="SourceAlpha" type="matrix" values="0 0 0 0 0 0 0 0 0 0 0 0 0 0 0 0 0 0 127 0" result="hardAlpha"/>
<feOffset dy="-0.710059"/>
<feGaussianBlur stdDeviation="3.19527"/>
<feComposite in2="hardAlpha" operator="arithmetic" k2="-1" k3="1"/>
<feColorMatrix type="matrix" values="0 0 0 0 0.900033 0 0 0 0 0.49663 0 0 0 0 0.450221 0 0 0 1 0"/>
<feBlend mode="normal" in2="shape" result="effect1_innerShadow_9826_265241"/>
</filter>
<filter id="filter2_di_9826_265241" x="8.92097" y="10.0938" width="24.6151" height="23.3316" filterUnits="userSpaceOnUse" color-interpolation-filters="sRGB">
<feFlood flood-opacity="0" result="BackgroundImageFix"/>
<feColorMatrix in="SourceAlpha" type="matrix" values="0 0 0 0 0 0 0 0 0 0 0 0 0 0 0 0 0 0 127 0" result="hardAlpha"/>
<feOffset dy="0.402795"/>
<feGaussianBlur stdDeviation="0.402795"/>
<feComposite in2="hardAlpha" operator="out"/>
<feColorMatrix type="matrix" values="0 0 0 0 0 0 0 0 0 0 0 0 0 0 0 0 0 0 0.3 0"/>
<feBlend mode="hard-light" in2="BackgroundImageFix" result="effect1_dropShadow_9826_265241"/>
<feBlend mode="normal" in="SourceGraphic" in2="effect1_dropShadow_9826_265241" result="shape"/>
<feColorMatrix in="SourceAlpha" type="matrix" values="0 0 0 0 0 0 0 0 0 0 0 0 0 0 0 0 0 0 127 0" result="hardAlpha"/>
<feOffset dy="-0.402795"/>
<feGaussianBlur stdDeviation="0.201397"/>
<feComposite in2="hardAlpha" operator="arithmetic" k2="-1" k3="1"/>
<feColorMatrix type="matrix" values="0 0 0 0 0.722842 0 0 0 0 0.810034 0 0 0 0 0.94082 0 0 0 0.8 0"/>
<feBlend mode="normal" in2="shape" result="effect2_innerShadow_9826_265241"/>
</filter>
<linearGradient id="paint0_linear_9826_265241" x1="23.8932" y1="19.3373" x2="32.8399" y2="11.6686" gradientUnits="userSpaceOnUse">
<stop stop-opacity="0"/>
<stop offset="1"/>
</linearGradient>
</defs>
</svg>
