<svg width="46" height="48" viewBox="0 0 46 48" fill="none" xmlns="http://www.w3.org/2000/svg">
<g filter="url(#filter0_dd_9826_265231)">
<path d="M38.5397 16.4615L26.0781 4L27.4443 16.2083C27.5928 17.5351 28.7147 18.5385 30.0498 18.5385H39.232L38.5397 16.4615Z" fill="#C1E4D8"/>
<g filter="url(#filter1_i_9826_265231)">
<path d="M30.9938 15.0769C29.4252 15.0769 28.1535 13.8053 28.1535 12.2367V7.40828C28.1535 5.52594 26.6276 4 24.7453 4H20.3997H9.99969C7.79055 4 5.99969 5.79086 5.99969 8V33.2308C5.99969 35.4399 7.79055 37.2308 9.99969 37.2308H35.2305C37.4396 37.2308 39.2305 35.4399 39.2305 33.2308V18.4852C39.2305 16.6029 37.7045 15.0769 35.8222 15.0769H30.9938Z" fill="#7FC88B"/>
<path d="M30.9938 15.0769C29.4252 15.0769 28.1535 13.8053 28.1535 12.2367V7.40828C28.1535 5.52594 26.6276 4 24.7453 4H20.3997H9.99969C7.79055 4 5.99969 5.79086 5.99969 8V33.2308C5.99969 35.4399 7.79055 37.2308 9.99969 37.2308H35.2305C37.4396 37.2308 39.2305 35.4399 39.2305 33.2308V18.4852C39.2305 16.6029 37.7045 15.0769 35.8222 15.0769H30.9938Z" fill="url(#paint0_linear_9826_265231)" fill-opacity="0.4" style="mix-blend-mode:overlay"/>
</g>
<path d="M30.9938 15.432C29.2291 15.432 27.7985 14.0014 27.7985 12.2367V7.40828C27.7985 5.72202 26.4315 4.35503 24.7453 4.35503H20.3997H9.99969C7.98663 4.35503 6.35472 5.98694 6.35472 8V33.2308C6.35472 35.2438 7.98663 36.8757 9.99969 36.8757H35.2305C37.2435 36.8757 38.8754 35.2438 38.8754 33.2308V18.4852C38.8754 16.7989 37.5085 15.432 35.8222 15.432H30.9938Z" stroke="#59C06A" stroke-width="0.710059" stroke-linejoin="round"/>
<g clip-path="url(#clip0_9826_265231)">
<g filter="url(#filter2_di_9826_265231)">
<path d="M12.4609 22.4167H24.4609M16.9609 17.9167V29.9167M13.9609 17.9167H22.9609C23.7894 17.9167 24.4609 18.5883 24.4609 19.4167V28.4167C24.4609 29.2452 23.7894 29.9167 22.9609 29.9167H13.9609C13.1325 29.9167 12.4609 29.2452 12.4609 28.4167V19.4167C12.4609 18.5883 13.1325 17.9167 13.9609 17.9167Z" stroke="white" stroke-width="1.92857" stroke-linecap="round" stroke-linejoin="round" shape-rendering="crispEdges"/>
</g>
</g>
<path d="M8.76863 37.2308L36.4609 37.2308L10.9173 39.7228C9.5323 39.858 8.43113 38.5808 8.76863 37.2308Z" fill="#C1E4D8"/>
</g>
<defs>
<filter id="filter0_dd_9826_265231" x="0" y="0" width="45.2305" height="48" filterUnits="userSpaceOnUse" color-interpolation-filters="sRGB">
<feFlood flood-opacity="0" result="BackgroundImageFix"/>
<feColorMatrix in="SourceAlpha" type="matrix" values="0 0 0 0 0 0 0 0 0 0 0 0 0 0 0 0 0 0 127 0" result="hardAlpha"/>
<feMorphology radius="2" operator="erode" in="SourceAlpha" result="effect1_dropShadow_9826_265231"/>
<feOffset dy="1"/>
<feGaussianBlur stdDeviation="1"/>
<feColorMatrix type="matrix" values="0 0 0 0 0 0 0 0 0 0 0 0 0 0 0 0 0 0 0.01 0"/>
<feBlend mode="normal" in2="BackgroundImageFix" result="effect1_dropShadow_9826_265231"/>
<feColorMatrix in="SourceAlpha" type="matrix" values="0 0 0 0 0 0 0 0 0 0 0 0 0 0 0 0 0 0 127 0" result="hardAlpha"/>
<feMorphology radius="2" operator="erode" in="SourceAlpha" result="effect2_dropShadow_9826_265231"/>
<feOffset dy="2"/>
<feGaussianBlur stdDeviation="4"/>
<feComposite in2="hardAlpha" operator="out"/>
<feColorMatrix type="matrix" values="0 0 0 0 0 0 0 0 0 0 0 0 0 0 0 0 0 0 0.06 0"/>
<feBlend mode="normal" in2="effect1_dropShadow_9826_265231" result="effect2_dropShadow_9826_265231"/>
<feBlend mode="normal" in="SourceGraphic" in2="effect2_dropShadow_9826_265231" result="shape"/>
</filter>
<filter id="filter1_i_9826_265231" x="6" y="3.28994" width="33.2305" height="33.9408" filterUnits="userSpaceOnUse" color-interpolation-filters="sRGB">
<feFlood flood-opacity="0" result="BackgroundImageFix"/>
<feBlend mode="normal" in="SourceGraphic" in2="BackgroundImageFix" result="shape"/>
<feColorMatrix in="SourceAlpha" type="matrix" values="0 0 0 0 0 0 0 0 0 0 0 0 0 0 0 0 0 0 127 0" result="hardAlpha"/>
<feOffset dy="-0.710059"/>
<feGaussianBlur stdDeviation="3.19527"/>
<feComposite in2="hardAlpha" operator="arithmetic" k2="-1" k3="1"/>
<feColorMatrix type="matrix" values="0 0 0 0 0.223492 0 0 0 0 0.764339 0 0 0 0 0.312399 0 0 0 1 0"/>
<feBlend mode="normal" in2="shape" result="effect1_innerShadow_9826_265231"/>
</filter>
<filter id="filter2_di_9826_265231" x="10.687" y="16.5478" width="15.548" height="15.547" filterUnits="userSpaceOnUse" color-interpolation-filters="sRGB">
<feFlood flood-opacity="0" result="BackgroundImageFix"/>
<feColorMatrix in="SourceAlpha" type="matrix" values="0 0 0 0 0 0 0 0 0 0 0 0 0 0 0 0 0 0 127 0" result="hardAlpha"/>
<feOffset dy="0.404567"/>
<feGaussianBlur stdDeviation="0.404567"/>
<feComposite in2="hardAlpha" operator="out"/>
<feColorMatrix type="matrix" values="0 0 0 0 0 0 0 0 0 0 0 0 0 0 0 0 0 0 0.3 0"/>
<feBlend mode="hard-light" in2="BackgroundImageFix" result="effect1_dropShadow_9826_265231"/>
<feBlend mode="normal" in="SourceGraphic" in2="effect1_dropShadow_9826_265231" result="shape"/>
<feColorMatrix in="SourceAlpha" type="matrix" values="0 0 0 0 0 0 0 0 0 0 0 0 0 0 0 0 0 0 127 0" result="hardAlpha"/>
<feOffset dy="-0.404567"/>
<feGaussianBlur stdDeviation="0.202284"/>
<feComposite in2="hardAlpha" operator="arithmetic" k2="-1" k3="1"/>
<feColorMatrix type="matrix" values="0 0 0 0 0.722842 0 0 0 0 0.810034 0 0 0 0 0.94082 0 0 0 0.8 0"/>
<feBlend mode="normal" in2="shape" result="effect2_innerShadow_9826_265231"/>
</filter>
<linearGradient id="paint0_linear_9826_265231" x1="24.5323" y1="18.6982" x2="33.479" y2="11.0296" gradientUnits="userSpaceOnUse">
<stop stop-opacity="0"/>
<stop offset="1"/>
</linearGradient>
<clipPath id="clip0_9826_265231">
<rect width="18" height="18" fill="white" transform="translate(9.46094 14.9167)"/>
</clipPath>
</defs>
</svg>
